<svg width="36" height="12" viewBox="0 0 36 12" fill="none" xmlns="http://www.w3.org/2000/svg">
<path d="M7.35816 9.856C7.5715 9.856 7.7395 9.91733 7.86216 10.04C7.99016 10.1573 8.05416 10.3147 8.05416 10.512V11.696H0.118164V11.04C0.118164 10.9067 0.144831 10.768 0.198164 10.624C0.256831 10.4747 0.347497 10.3413 0.470164 10.224L3.98216 6.704C4.2755 6.40533 4.53683 6.12 4.76616 5.848C5.00083 5.576 5.1955 5.30667 5.35016 5.04C5.50483 4.77333 5.62216 4.504 5.70216 4.232C5.7875 3.95467 5.83016 3.664 5.83016 3.36C5.83016 3.08267 5.79016 2.84 5.71016 2.632C5.63016 2.41867 5.5155 2.24 5.36616 2.096C5.22216 1.952 5.04616 1.84533 4.83816 1.776C4.6355 1.70133 4.40616 1.664 4.15016 1.664C3.9155 1.664 3.69683 1.69867 3.49416 1.768C3.29683 1.832 3.12083 1.92533 2.96616 2.048C2.8115 2.16533 2.68083 2.304 2.57416 2.464C2.4675 2.624 2.3875 2.8 2.33416 2.992C2.2435 3.23733 2.12616 3.4 1.98216 3.48C1.83816 3.56 1.63016 3.57867 1.35816 3.536L0.318164 3.352C0.398164 2.79733 0.552831 2.312 0.782164 1.896C1.0115 1.47467 1.29683 1.12533 1.63816 0.848C1.98483 0.565333 2.3795 0.354666 2.82216 0.216C3.27016 0.0719999 3.75016 0 4.26216 0C4.7955 0 5.2835 0.0799999 5.72616 0.24C6.16883 0.394666 6.5475 0.615999 6.86216 0.903999C7.17683 1.192 7.42216 1.53867 7.59816 1.944C7.77416 2.34933 7.86216 2.8 7.86216 3.296C7.86216 3.72267 7.79816 4.11733 7.67017 4.48C7.5475 4.84267 7.3795 5.18933 7.16616 5.52C6.95816 5.85067 6.71283 6.17067 6.43016 6.48C6.1475 6.78933 5.8515 7.104 5.54216 7.424L2.93416 10.088C3.18483 10.0133 3.43283 9.95733 3.67816 9.92C3.92883 9.87733 4.16616 9.856 4.39016 9.856H7.35816Z" fill="#333333"/>
<path d="M17.6714 5.912C17.6714 6.92 17.5621 7.79733 17.3434 8.544C17.1301 9.28533 16.8314 9.89867 16.4474 10.384C16.0687 10.8693 15.6181 11.232 15.0954 11.472C14.5781 11.7067 14.0181 11.824 13.4154 11.824C12.8127 11.824 12.2527 11.7067 11.7354 11.472C11.2234 11.232 10.7781 10.8693 10.3994 10.384C10.0207 9.89867 9.72475 9.28533 9.51141 8.544C9.29808 7.79733 9.19141 6.92 9.19141 5.912C9.19141 4.89867 9.29808 4.02133 9.51141 3.28C9.72475 2.53867 10.0207 1.92533 10.3994 1.44C10.7781 0.954666 11.2234 0.594666 11.7354 0.36C12.2527 0.12 12.8127 0 13.4154 0C14.0181 0 14.5781 0.12 15.0954 0.36C15.6181 0.594666 16.0687 0.954666 16.4474 1.44C16.8314 1.92533 17.1301 2.53867 17.3434 3.28C17.5621 4.02133 17.6714 4.89867 17.6714 5.912ZM15.6314 5.912C15.6314 5.07467 15.5701 4.38133 15.4474 3.832C15.3247 3.28267 15.1594 2.84533 14.9514 2.52C14.7487 2.19467 14.5141 1.968 14.2474 1.84C13.9807 1.70667 13.7034 1.64 13.4154 1.64C13.1327 1.64 12.8581 1.70667 12.5914 1.84C12.3301 1.968 12.0981 2.19467 11.8954 2.52C11.6927 2.84533 11.5301 3.28267 11.4074 3.832C11.2901 4.38133 11.2314 5.07467 11.2314 5.912C11.2314 6.74933 11.2901 7.44267 11.4074 7.992C11.5301 8.54133 11.6927 8.97867 11.8954 9.304C12.0981 9.62933 12.3301 9.85867 12.5914 9.992C12.8581 10.12 13.1327 10.184 13.4154 10.184C13.7034 10.184 13.9807 10.12 14.2474 9.992C14.5141 9.85867 14.7487 9.62933 14.9514 9.304C15.1594 8.97867 15.3247 8.54133 15.4474 7.992C15.5701 7.44267 15.6314 6.74933 15.6314 5.912Z" fill="#333333"/>
<path d="M25.9207 9.856C26.134 9.856 26.302 9.91733 26.4247 10.04C26.5527 10.1573 26.6167 10.3147 26.6167 10.512V11.696H18.6807V11.04C18.6807 10.9067 18.7073 10.768 18.7607 10.624C18.8193 10.4747 18.91 10.3413 19.0327 10.224L22.5447 6.704C22.838 6.40533 23.0993 6.12 23.3287 5.848C23.5633 5.576 23.758 5.30667 23.9127 5.04C24.0673 4.77333 24.1847 4.504 24.2647 4.232C24.35 3.95467 24.3927 3.664 24.3927 3.36C24.3927 3.08267 24.3527 2.84 24.2727 2.632C24.1927 2.41867 24.078 2.24 23.9287 2.096C23.7847 1.952 23.6087 1.84533 23.4007 1.776C23.198 1.70133 22.9687 1.664 22.7127 1.664C22.478 1.664 22.2593 1.69867 22.0567 1.768C21.8593 1.832 21.6833 1.92533 21.5287 2.048C21.374 2.16533 21.2433 2.304 21.1367 2.464C21.03 2.624 20.95 2.8 20.8967 2.992C20.806 3.23733 20.6887 3.4 20.5447 3.48C20.4007 3.56 20.1927 3.57867 19.9207 3.536L18.8807 3.352C18.9607 2.79733 19.1153 2.312 19.3447 1.896C19.574 1.47467 19.8593 1.12533 20.2007 0.848C20.5473 0.565333 20.942 0.354666 21.3847 0.216C21.8327 0.0719999 22.3127 0 22.8247 0C23.358 0 23.846 0.0799999 24.2887 0.24C24.7313 0.394666 25.11 0.615999 25.4247 0.903999C25.7393 1.192 25.9847 1.53867 26.1607 1.944C26.3367 2.34933 26.4247 2.8 26.4247 3.296C26.4247 3.72267 26.3607 4.11733 26.2327 4.48C26.11 4.84267 25.942 5.18933 25.7287 5.52C25.5207 5.85067 25.2753 6.17067 24.9927 6.48C24.71 6.78933 24.414 7.104 24.1047 7.424L21.4967 10.088C21.7473 10.0133 21.9953 9.95733 22.2407 9.92C22.4913 9.87733 22.7287 9.856 22.9527 9.856H25.9207Z" fill="#333333"/>
<path d="M28.2179 3.352C28.2979 2.79733 28.4526 2.312 28.6819 1.896C28.9112 1.47467 29.1966 1.12533 29.5379 0.848C29.8846 0.565333 30.2792 0.354666 30.7219 0.216C31.1699 0.0719999 31.6499 0 32.1619 0C32.6952 0 33.1752 0.0773331 33.6019 0.231999C34.0339 0.381333 34.4019 0.591999 34.7059 0.863999C35.0099 1.13067 35.2419 1.44533 35.4019 1.808C35.5672 2.17067 35.6499 2.56267 35.6499 2.984C35.6499 3.352 35.6072 3.67733 35.5219 3.96C35.4419 4.23733 35.3246 4.48 35.1699 4.688C35.0152 4.896 34.8232 5.072 34.5939 5.216C34.3646 5.36 34.1059 5.48 33.8179 5.576C34.5112 5.79467 35.0286 6.128 35.3699 6.576C35.7112 7.024 35.8819 7.58667 35.8819 8.264C35.8819 8.84 35.7752 9.34933 35.5619 9.792C35.3486 10.2347 35.0606 10.608 34.6979 10.912C34.3352 11.2107 33.9139 11.4373 33.4339 11.592C32.9592 11.7467 32.4552 11.824 31.9219 11.824C31.3406 11.824 30.8339 11.7573 30.4019 11.624C29.9699 11.4907 29.5939 11.2933 29.2739 11.032C28.9539 10.7707 28.6819 10.4507 28.4579 10.072C28.2339 9.69333 28.0419 9.256 27.8819 8.76L28.7539 8.4C28.9832 8.304 29.1966 8.28 29.3939 8.328C29.5966 8.37067 29.7432 8.47733 29.8339 8.648C29.9299 8.83467 30.0339 9.01867 30.1459 9.2C30.2632 9.38133 30.4019 9.544 30.5619 9.688C30.7219 9.82667 30.9086 9.94133 31.1219 10.032C31.3406 10.1173 31.5992 10.16 31.8979 10.16C32.2339 10.16 32.5272 10.1067 32.7779 10C33.0286 9.888 33.2366 9.744 33.4019 9.568C33.5726 9.392 33.6979 9.19733 33.7779 8.984C33.8632 8.76533 33.9059 8.54667 33.9059 8.328C33.9059 8.05067 33.8766 7.8 33.8179 7.576C33.7592 7.34667 33.6366 7.152 33.4499 6.992C33.2632 6.832 32.9939 6.70667 32.6419 6.616C32.2952 6.52533 31.8286 6.48 31.2419 6.48V5.072C31.7272 5.06667 32.1299 5.02133 32.4499 4.936C32.7699 4.85067 33.0232 4.73333 33.2099 4.584C33.4019 4.42933 33.5352 4.24533 33.6099 4.032C33.6846 3.81867 33.7219 3.584 33.7219 3.328C33.7219 2.784 33.5699 2.37067 33.2659 2.088C32.9619 1.80533 32.5566 1.664 32.0499 1.664C31.8152 1.664 31.5992 1.69867 31.4019 1.768C31.2046 1.832 31.0259 1.92533 30.8659 2.048C30.7112 2.16533 30.5806 2.304 30.4739 2.464C30.3672 2.624 30.2872 2.8 30.2339 2.992C30.1432 3.23733 30.0232 3.4 29.8739 3.48C29.7299 3.56 29.5246 3.57867 29.2579 3.536L28.2179 3.352Z" fill="#333333"/>
</svg>
